<svg width="29" height="29" viewBox="0 0 29 29" xmlns="http://www.w3.org/2000/svg"><title>E89F8677-A41F-44EE-804D-69DCD7BC25E6</title><g fill="#FFF" fill-rule="evenodd"><path d="M2.354 14.5c0 6.71 5.437 12.146 12.146 12.146 6.71 0 12.146-5.437 12.146-12.146 0-6.71-5.437-12.146-12.146-12.146C7.79 2.354 2.354 7.79 2.354 14.5zm-2 0C.354 6.687 6.685.354 14.5.354c7.813 0 14.146 6.331 14.146 14.146 0 7.813-6.331 14.146-14.146 14.146C6.687 28.646.354 22.315.354 14.5z" fill-rule="nonzero"/><path d="M11.444 8.911l7.576 5.629-7.576 5.628z"/></g></svg>