<svg id="Laag_1" xmlns="http://www.w3.org/2000/svg" viewBox="0 0 800 800"><style>.st0{fill:#cd315a}.st1{fill:#fefefe}</style><path class="st0" d="M400.5 801c-131.7 0-263.3 0-395 .1-3.7 0-4.6-.8-4.6-4.6.1-263.7.1-527.3 0-791C.9 1.8 1.7.9 5.5.9c263.7.1 527.3.1 791 0 3.7 0 4.6.8 4.6 4.6-.1 263.7-.1 527.3 0 791 0 3.7-.8 4.6-4.6 4.6-132-.1-264-.1-396-.1z"/><path class="st1" d="M401 438.2c23.5 0 47-.1 70.5 0 57.6.4 106 37.6 119.9 92 2.5 9.7 3.7 19.6 3.8 29.6.1 16.7-6.2 30.5-18.9 41.2-44.1 36.9-94.6 58.5-152 63-74.1 5.9-139.8-15.2-197.2-62.3-14.6-12-21-27.6-19.8-46.3 4.2-67.4 56.7-116.9 124.2-117.3 23.2 0 46.3.1 69.5.1zM279.8 256.9c0-66.9 54.3-121.2 121.5-121.2 67.1-.1 121.8 54.3 121.8 121-.1 67.7-54.3 122.2-121.6 122.3-67.4 0-121.7-54.4-121.7-122.1z"/></svg>