<?xml version="1.0" encoding="UTF-8" standalone="no"?>
<svg width="30px" height="30px" viewBox="0 0 30 30" version="1.1" xmlns="http://www.w3.org/2000/svg" xmlns:xlink="http://www.w3.org/1999/xlink">
    <!-- Generator: sketchtool 3.6.1 (26313) - http://www.bohemiancoding.com/sketch -->
    <title>02F90A11-8A81-4B0C-802B-FBAC2019D754</title>
    <desc>Created with sketchtool.</desc>
    <defs></defs>
    <g id="Boostrap-3-Grid" stroke="none" stroke-width="1" fill="none" fill-rule="evenodd">
        <g id="Large-Desktop-(1200px-or-more)" transform="translate(-984.000000, -1417.000000)">
            <g id="Desktop">
                <g id="Syncable-Content" transform="translate(0.000000, 746.000000)">
                    <g id="Feedback" transform="translate(436.000000, 667.000000)">
                        <g id="Button" transform="translate(548.000000, 4.000000)">
                            <path d="M15,30 C23.2842712,30 30,23.2842712 30,15 C30,6.71572875 23.2842712,0 15,0 C6.71572875,0 0,6.71572875 0,15 C0,23.2842712 6.71572875,30 15,30 Z" id="Oval" fill="#CF315B"></path>
                            <g id="Icon-Arrow" transform="translate(4.000000, 2.000000)">
                                <path d="M0,0.71875 L23,0.71875 L23,23.71875 L0,23.71875 L0,0.71875 Z" id="Bounds"></path>
                                <path d="M8.23208333,16.6175 L12.62125,12.21875 L8.23208333,7.82 L9.58333333,6.46875 L15.3333333,12.21875 L9.58333333,17.96875 L8.23208333,16.6175 Z" id="Shape" fill="#FFFFFF"></path>
                            </g>
                        </g>
                    </g>
                </g>
            </g>
        </g>
    </g>
</svg>