<?xml version="1.0" encoding="UTF-8" standalone="no"?>
<svg width="20px" height="20px" viewBox="0 0 20 20" version="1.1" xmlns="http://www.w3.org/2000/svg" xmlns:xlink="http://www.w3.org/1999/xlink">
    <!-- Generator: sketchtool 3.6.1 (26313) - http://www.bohemiancoding.com/sketch -->
    <title>AC1E09AF-F881-4999-94AF-4141E435E5B7</title>
    <desc>Created with sketchtool.</desc>
    <defs></defs>
    <g id="Boostrap-3-Grid" stroke="none" stroke-width="1" fill="none" fill-rule="evenodd">
        <g id="Large-Desktop-(1200px-or-more)" transform="translate(-621.000000, -2704.000000)" fill="#CF315B">
            <g id="Desktop">
                <g id="Footer" transform="translate(0.000000, 2636.000000)">
                    <g id="Social-Links" transform="translate(621.000000, 68.000000)">
                        <path d="M20,18.8962436 C20,19.5058702 19.5058702,20 18.8962436,20 L13.7996786,20 L13.7996786,12.2546376 L16.3994443,12.2546376 L16.7889733,9.23646863 L13.7996786,9.23646863 L13.7996786,7.30952576 C13.7996786,6.43567323 14.0426575,5.83966658 15.2956879,5.83966658 L16.8941189,5.83912179 L16.8941189,3.13965841 C16.6173626,3.1026123 15.6688731,3.02034812 14.5651167,3.02034812 C12.2606303,3.02034812 10.6829016,4.42701098 10.6829016,7.01043284 L10.6829016,9.23646863 L8.07659829,9.23646863 L8.07659829,12.2546376 L10.6829016,12.2546376 L10.6829016,20 L1.10375637,20 C0.494129825,20 0,19.5058702 0,18.8962436 L0,1.10375637 C0,0.494129825 0.494129825,0 1.10375637,0 L18.8962436,0 C19.5058702,0 20,0.494129825 20,1.10375637 L20,18.8962436" id="Facebook"></path>
                    </g>
                </g>
            </g>
        </g>
    </g>
</svg>