<?xml version="1.0" encoding="UTF-8" standalone="no"?>
<svg width="22px" height="20px" viewBox="0 0 22 20" version="1.1" xmlns="http://www.w3.org/2000/svg" xmlns:xlink="http://www.w3.org/1999/xlink">
    <!-- Generator: sketchtool 3.6.1 (26313) - http://www.bohemiancoding.com/sketch -->
    <title>8A45F25D-A843-47C0-8A10-214E4683251D</title>
    <desc>Created with sketchtool.</desc>
    <defs></defs>
    <g id="Boostrap-3-Grid" stroke="none" stroke-width="1" fill="none" fill-rule="evenodd">
        <g id="Large-Desktop-(1200px-or-more)" transform="translate(-678.000000, -2704.000000)" fill="#CF315B">
            <g id="Desktop">
                <g id="Footer" transform="translate(0.000000, 2636.000000)">
                    <g id="Social-Links" transform="translate(621.000000, 68.000000)">
                        <path d="M57.5546113,6.41381161 L61.8424129,6.41381161 L61.8424129,20 L57.5546113,20 L57.5546113,6.41381161 Z M73.5578316,6.28320959 C71.1014402,6.28320959 69.5622447,7.61368041 69.2777827,8.54578525 L69.2777827,6.41381161 L64.4610132,6.41381161 C64.5230343,7.5456958 64.4610132,20 64.4610132,20 L69.2777827,20 L69.2777827,12.64812 C69.2777827,12.2390196 69.2586993,11.8305155 69.3827414,11.5377046 C69.7137192,10.7206965 70.4251722,9.87267794 71.7043564,9.87267794 C73.3771357,9.87267794 74.1374899,11.1292006 74.1374899,12.9689597 L74.1374899,20 L78.9995826,20 L78.9995826,12.4453589 C78.9995826,8.23746906 76.6052122,6.28320959 73.5578316,6.28320959 Z M59.6191967,0 C58.0358708,0 57,1.01678743 57,2.35918538 C57,3.67594001 58.0066494,4.71419626 59.5583684,4.71419626 L59.5893789,4.71419626 C61.2013299,4.71419626 62.2049975,3.67176551 62.2049975,2.35560724 C62.1739869,1.014402 61.2013299,0 59.6191967,0 Z" id="Linkedin"></path>
                    </g>
                </g>
            </g>
        </g>
    </g>
</svg>