<?xml version="1.0" encoding="UTF-8" standalone="no"?>
<svg width="24px" height="20px" viewBox="0 0 24 20" version="1.1" xmlns="http://www.w3.org/2000/svg" xmlns:xlink="http://www.w3.org/1999/xlink">
    <!-- Generator: sketchtool 3.6.1 (26313) - http://www.bohemiancoding.com/sketch -->
    <title>F91E4459-DA68-488A-8A74-5AF1344D27D8</title>
    <desc>Created with sketchtool.</desc>
    <defs></defs>
    <g id="Boostrap-3-Grid" stroke="none" stroke-width="1" fill="none" fill-rule="evenodd">
        <g id="Large-Desktop-(1200px-or-more)" transform="translate(-737.000000, -2704.000000)" fill="#CF315B">
            <g id="Desktop">
                <g id="Footer" transform="translate(0.000000, 2636.000000)">
                    <g id="Social-Links" transform="translate(621.000000, 68.000000)">
                        <path d="M136.208253,1.59361784 C135.312444,0.612584903 134.032167,0 132.614764,0 C129.89786,0 127.692939,2.26066897 127.692939,5.04869922 C127.692939,5.44470076 127.73523,5.82916827 127.819813,6.19889786 C123.727797,5.98808151 120.100346,3.97987953 117.670511,0.922081251 C117.246316,1.67051134 117.004101,2.53812636 117.004101,3.46277073 C117.004101,5.21337947 117.872998,6.75957965 119.194925,7.66500064 C118.388825,7.64065103 117.62822,7.4106113 116.963091,7.0351147 L116.963091,7.09727028 C116.963091,9.544406 118.660515,11.5852877 120.914776,12.0479303 C120.502115,12.1658337 120.066385,12.2254261 119.617199,12.2254261 C119.300013,12.2254261 118.990516,12.1953095 118.690632,12.135717 C119.317314,14.1407151 121.134564,15.6010509 123.289504,15.6401384 C121.604896,16.9953864 119.480713,17.8027682 117.174548,17.8027682 C116.777265,17.8027682 116.384468,17.7797001 116,17.733564 C118.178649,19.1637832 120.768038,20 123.547738,20 C132.605152,20 137.556453,12.3074459 137.556453,5.63565295 C137.556453,5.41586569 137.552608,5.19607843 137.544278,4.98077662 C138.506087,4.26887095 139.341663,3.38011021 139.999103,2.3676791 C139.117391,2.76944765 138.167756,3.04113802 137.171985,3.16224529 C138.188902,2.53812636 138.969371,1.5487633 139.337178,0.37037037 C138.38498,0.947712418 137.332821,1.36806357 136.208253,1.59361784 Z" id="Twitter"></path>
                    </g>
                </g>
            </g>
        </g>
    </g>
</svg>