<?xml version="1.0" encoding="UTF-8" standalone="no"?>
<svg width="77px" height="77px" viewBox="0 0 77 77" version="1.1" xmlns="http://www.w3.org/2000/svg" xmlns:xlink="http://www.w3.org/1999/xlink">
    <!-- Generator: sketchtool 3.6.1 (26313) - http://www.bohemiancoding.com/sketch -->
    <title>80139970-63D0-421A-B624-6422D67DD9C8</title>
    <desc>Created with sketchtool.</desc>
    <defs>
        <filter x="-50%" y="-50%" width="200%" height="200%" filterUnits="objectBoundingBox" id="filter-1">
            <feOffset dx="0" dy="4" in="SourceAlpha" result="shadowOffsetOuter1"></feOffset>
            <feGaussianBlur stdDeviation="5" in="shadowOffsetOuter1" result="shadowBlurOuter1"></feGaussianBlur>
            <feColorMatrix values="0 0 0 0 0   0 0 0 0 0   0 0 0 0 0  0 0 0 0.35 0" in="shadowBlurOuter1" type="matrix" result="shadowMatrixOuter1"></feColorMatrix>
            <feMerge>
                <feMergeNode in="shadowMatrixOuter1"></feMergeNode>
                <feMergeNode in="SourceGraphic"></feMergeNode>
            </feMerge>
        </filter>
    </defs>
    <g id="Boostrap-3-Grid" stroke="none" stroke-width="1" fill="none" fill-rule="evenodd" filter="url(#filter-1)">
        <g id="Large-Desktop-(1200px-or-more)" transform="translate(-1222.000000, -1119.000000)">
            <g id="Desktop">
                <g id="Syncable-Content" transform="translate(0.000000, 746.000000)">
                    <g id="Button" transform="translate(1232.000000, 379.000000)">
                        <path d="M28.5175227,57.0350453 C44.2673155,57.0350453 57.0350453,44.2673155 57.0350453,28.5175227 C57.0350453,12.7677298 44.2673155,0 28.5175227,0 C12.7677298,0 0,12.7677298 0,28.5175227 C0,44.2673155 12.7677298,57.0350453 28.5175227,57.0350453 Z" id="Oval" fill="#FFFFFF"></path>
                        <g id="Icon-Arrow" transform="translate(14.000000, 13.000000)">
                            <path d="M0,0.9375 L30,0.9375 L30,30.9375 L0,30.9375 L0,0.9375 Z" id="Bounds"></path>
                            <path d="M10.7375,21.675 L16.4625,15.9375 L10.7375,10.2 L12.5,8.4375 L20,15.9375 L12.5,23.4375 L10.7375,21.675 Z" id="Shape" fill="#CF315B"></path>
                        </g>
                    </g>
                </g>
            </g>
        </g>
    </g>
</svg>