<svg xmlns="http://www.w3.org/2000/svg" width="148" height="46" viewBox="0 0 148 46" xmlns:xlink="http://www.w3.org/1999/xlink">
  <defs>
    <path id="a" d="M4.076 2.988C2.74 4.323 1.406 5.658.073 6.995 2.367 9.29 5.31 10.82 8.47 11.398c2.807.515 5.788.28 8.64-.84.297-.115.566-.27.804-.457 1.005-.787 1.447-2.146 1.097-3.374-.258-.91-.922-1.668-1.786-2.048L12.15 2.413 6.96.098l-2.886 2.89z"/>
  </defs>
  <g fill="none" fill-rule="evenodd">
    <path fill="#fff" d="M116.536 29.925c-3.596 0-6.51-2.913-6.51-6.506 0-3.593 2.914-6.506 6.51-6.506 3.595 0 6.51 2.913 6.51 6.505s-2.915 6.505-6.51 6.505zm-22.6 0c-3.595 0-6.51-2.913-6.51-6.506 0-3.593 2.915-6.506 6.51-6.506 3.596 0 6.51 2.913 6.51 6.505s-2.914 6.505-6.51 6.505zm53.4-13.03V11.96h-4.907V7h-4.94v4.96h-4.91V7h-4.938v13.46c-1.306-4.908-5.783-8.525-11.106-8.525-5.633 0-10.316 4.05-11.3 9.394-.984-5.345-5.667-9.395-11.3-9.395-6.348 0-11.493 5.142-11.493 11.484v2.478c-.47-1.156-1.363-2.09-2.722-2.823-.43-.22-.9-.416-1.393-.58-1.825-.605-8.363-2.704-8.573-2.77-.343-.104-.85-.385-.843-.724.008-.33.314-.712.913-1.132.86-.603 2.215-1.01 3.37-1.01 1.246 0 2.355.287 3.39.876.915.52 1.313.898 1.914 1.47.126.12.677.634.677.634l3.362-3.278s-1.033-1.162-1.096-1.227c-3.412-3.54-9.205-4.432-13.476-2.075-2.74 1.512-4.176 3.776-3.94 6.21.183 1.868 1.19 3.272 3.085 4.295.427.22.896.415 1.392.58 1.912.634 8.38 2.71 8.574 2.77.342.105.85.385.843.725-.008.33-.315.712-.914 1.132-.86.604-2.215 1.01-3.368 1.01-1.247 0-2.356-.286-3.393-.875-.914-.52-1.31-.9-1.913-1.47-.126-.12-.676-.635-.676-.635l-3.363 3.28s1.036 1.163 1.096 1.225c2.13 2.21 5.187 3.388 8.223 3.388 1.827 0 3.647-.427 5.252-1.313 1.774-.98 2.997-2.273 3.578-3.724v9.96h4.962V32.87c1.855 1.283 4.105 2.036 6.53 2.036 5.634 0 10.317-4.05 11.3-9.394.985 5.344 5.668 9.394 11.3 9.394 5.324 0 9.8-3.618 11.107-8.526v.044c0 5.613 2.855 8.46 8.487 8.46v-4.936c-2.422 0-3.55-1.12-3.55-3.524v-9.527h4.91v9.527c0 5.613 2.854 8.46 8.486 8.46v-4.936c-2.42 0-3.547-1.12-3.547-3.524v-9.527h4.907z"/>
    <path fill="#D9345D" d="M22.495 43.91c-11.69 0-21.164-9.49-21.164-21.198s9.476-21.2 21.165-21.2c11.69 0 21.164 9.492 21.164 21.2 0 11.708-9.476 21.2-21.165 21.2m0-43.716C10.07.196 0 10.278 0 22.716c0 12.437 10.07 22.52 22.495 22.52 12.424 0 22.495-10.083 22.495-22.52 0-12.438-10.07-22.52-22.495-22.52"/>
    <path fill="#D9345D" d="M33.894 24.886c-.815-2.085-2.256-3.74-4.023-4.832-.406-.252-.83-.473-1.267-.664l-12.048-5.377c-.744-.327-1.363-.937-1.683-1.754-.64-1.638.172-3.48 1.802-4.126-5.11 2.003-7.63 7.773-5.63 12.89.814 2.084 2.255 3.74 4.022 4.83.41.255.837.477 1.278.67l12.032 5.37c.744.326 1.37.94 1.69 1.757.04.103.073.206.102.31.433 1.554-.382 3.207-1.905 3.815 5.11-2.003 7.63-7.773 5.63-12.89"/>
    <path fill="#9B2446" d="M16.555 14.013l10.268 4.582 6.89-6.896c-4.332-4.333-10.974-5.943-17.04-3.566-1.634.64-2.44 2.488-1.8 4.125.318.816.938 1.426 1.682 1.753M30.065 33.65c-.32-.816-.945-1.43-1.69-1.756l-10.26-4.58-6.89 6.896c4.33 4.332 10.972 5.942 17.038 3.565 1.533-.6 2.338-2.26 1.905-3.816-.03-.104-.063-.207-.103-.31"/>
    <path d="M16.674 8.134c-.297.117-.565.272-.804.46-.95.744-1.408 1.983-1.144 3.184.217.988.904 1.828 1.83 2.235 1.654.74 3.31 1.478 4.966 2.217l5.3 2.365 3.065-3.067 3.825-3.83c-2.343-2.342-5.362-3.89-8.6-4.44-.87-.147-1.756-.223-2.65-.223-1.926 0-3.885.354-5.788 1.1"/>
    <g transform="translate(11.152 27.216)">
      <mask id="b" fill="#fff">
        <use xlink:href="#a"/>
      </mask>
      <path d="M4.076 2.988C2.74 4.323 1.406 5.658.073 6.995 2.367 9.29 5.31 10.82 8.47 11.398c2.807.515 5.788.28 8.64-.84.297-.115.566-.27.804-.457 1.005-.787 1.447-2.146 1.097-3.374-.258-.91-.922-1.668-1.786-2.048L12.15 2.413 6.96.098l-2.886 2.89" mask="url(#b)"/>
    </g>
  </g>
</svg>
