<?xml version="1.0" encoding="UTF-8" standalone="no"?>
<svg width="153px" height="45px" viewBox="0 0 153 45" version="1.1" xmlns="http://www.w3.org/2000/svg" xmlns:xlink="http://www.w3.org/1999/xlink">
    <!-- Generator: sketchtool 3.6.1 (26313) - http://www.bohemiancoding.com/sketch -->
    <title>976CC750-EE4D-472F-B14D-E15419D526A7</title>
    <desc>Created with sketchtool.</desc>
    <defs></defs>
    <g id="Boostrap-3-Grid" stroke="none" stroke-width="1" fill="none" fill-rule="evenodd">
        <g id="Large-Desktop-(1200px-or-more)" transform="translate(-738.000000, -549.000000)">
            <g id="Desktop">
                <g id="Introduction">
                    <g id="App-Store-Badge" transform="translate(738.000000, 549.000000)">
                        <g id="US_UK_Download_on_the">
                            <g id="Group">
                                <path d="M147.5566,45 L5.35953333,45 C2.40493333,45 0,42.606 0,39.675375 L0,5.31675 C0,2.385 2.40493333,0 5.35953333,0 L147.5566,0 C150.510067,0 153,2.385 153,5.31675 L153,39.675375 C153,42.606 150.510067,45 147.5566,45 L147.5566,45 L147.5566,45 Z" id="Shape" fill="#A6A6A6"></path>
                                <path d="M151.902933,39.6765 C151.902933,42.057 149.9604,43.98525 147.557733,43.98525 L5.35953333,43.98525 C2.958,43.98525 1.00866667,42.057 1.00866667,39.6765 L1.00866667,5.315625 C1.00866667,2.93625 2.958,1.00125 5.35953333,1.00125 L147.5566,1.00125 C149.9604,1.00125 151.9018,2.93625 151.9018,5.315625 L151.902933,39.6765 L151.902933,39.6765 L151.902933,39.6765 Z" id="Shape" fill="#000000"></path>
                                <g transform="translate(14.418182, 6.750000)" id="Shape" fill="#FFFFFF">
                                    <path d="M19.7268848,15.507 C19.6940182,11.881125 22.7177515,10.117125 22.8560182,10.035 C21.1435515,7.556625 18.4892848,7.218 17.5565515,7.191 C15.3272848,6.958125 13.1648848,8.515125 12.0292848,8.515125 C10.8710182,8.515125 9.12228485,7.2135 7.23755152,7.25175 C4.81221818,7.288875 2.54328485,8.68275 1.29888485,10.84725 C-1.26924848,15.260625 0.646084848,21.74625 3.10655152,25.313625 C4.33735152,27.06075 5.77555152,29.0115 7.65801818,28.942875 C9.49968485,28.8675 10.1876182,27.777375 12.4100848,27.777375 C14.6121515,27.777375 15.2581515,28.942875 17.1780182,28.899 C19.1545515,28.8675 20.3989515,27.144 21.5866848,25.381125 C23.0090182,23.378625 23.5802182,21.4065 23.6028848,21.30525 C23.5564182,21.2895 19.7642848,19.852875 19.7268848,15.507 L19.7268848,15.507 Z"></path>
                                    <path d="M16.1002182,4.84425 C17.0907515,3.614625 17.7684848,1.94175 17.5803515,0.244125 C16.1466848,0.307125 14.3537515,1.2285 13.3212848,2.431125 C12.4078182,3.490875 11.5918182,5.227875 11.8026182,6.861375 C13.4130848,6.980625 15.0666182,6.05475 16.1002182,4.84425 L16.1002182,4.84425 Z"></path>
                                </g>
                                <g transform="translate(47.600000, 20.250000)" id="Shape" fill="#FFFFFF">
                                    <path d="M13.1976667,15.192 L10.6238667,15.192 L9.214,10.794375 L4.31346667,10.794375 L2.97046667,15.192 L0.464666667,15.192 L5.31986667,0.2205 L8.31866667,0.2205 L13.1976667,15.192 L13.1976667,15.192 Z M8.789,8.949375 L7.514,5.04 C7.37913333,4.640625 7.1264,3.700125 6.75353333,2.219625 L6.7082,2.219625 C6.55973333,2.856375 6.3206,3.796875 5.99193333,5.04 L4.7396,8.949375 L8.789,8.949375 L8.789,8.949375 Z"></path>
                                    <path d="M25.6836,9.6615 C25.6836,11.4975 25.1838,12.94875 24.1842,14.014125 C23.2888667,14.9625 22.1770667,15.436125 20.8499333,15.436125 C19.4174,15.436125 18.3883333,14.925375 17.7616,13.903875 L17.7162667,13.903875 L17.7162667,19.59075 L15.3,19.59075 L15.3,7.950375 C15.3,6.796125 15.2694,5.6115 15.2104667,4.3965 L17.3354667,4.3965 L17.4703333,6.107625 L17.5156667,6.107625 C18.3214667,4.818375 19.5443333,4.174875 21.1854,4.174875 C22.4683333,4.174875 23.5393333,4.67775 24.3961333,5.684625 C25.2552,6.692625 25.6836,8.017875 25.6836,9.6615 L25.6836,9.6615 Z M23.222,9.74925 C23.222,8.6985 22.984,7.83225 22.5057333,7.1505 C21.9832667,6.4395 21.2817333,6.084 20.4022667,6.084 C19.8061333,6.084 19.2644,6.282 18.7804667,6.672375 C18.2954,7.066125 17.9780667,7.58025 17.8296,8.217 C17.7548,8.514 17.7174,8.757 17.7174,8.94825 L17.7174,10.74825 C17.7174,11.5335 17.9599333,12.196125 18.445,12.73725 C18.9300667,13.278375 19.5602,13.548375 20.3354,13.548375 C21.2454667,13.548375 21.9538,13.199625 22.4604,12.504375 C22.9681333,11.808 23.222,10.89 23.222,9.74925 L23.222,9.74925 Z"></path>
                                    <path d="M38.1922,9.6615 C38.1922,11.4975 37.6924,12.94875 36.6916667,14.014125 C35.7974667,14.9625 34.6856667,15.436125 33.3585333,15.436125 C31.926,15.436125 30.8969333,14.925375 30.2713333,13.903875 L30.226,13.903875 L30.226,19.59075 L27.8097333,19.59075 L27.8097333,7.950375 C27.8097333,6.796125 27.7791333,5.6115 27.7202,4.3965 L29.8452,4.3965 L29.9800667,6.107625 L30.0254,6.107625 C30.8300667,4.818375 32.0529333,4.174875 33.6951333,4.174875 C34.9769333,4.174875 36.0479333,4.67775 36.907,5.684625 C37.7626667,6.692625 38.1922,8.017875 38.1922,9.6615 L38.1922,9.6615 Z M35.7306,9.74925 C35.7306,8.6985 35.4914667,7.83225 35.0132,7.1505 C34.4907333,6.4395 33.7914667,6.084 32.9108667,6.084 C32.3136,6.084 31.773,6.282 31.2879333,6.672375 C30.8028667,7.066125 30.4866667,7.58025 30.3382,8.217 C30.2645333,8.514 30.226,8.757 30.226,8.94825 L30.226,10.74825 C30.226,11.5335 30.4685333,12.196125 30.9513333,12.73725 C31.4364,13.27725 32.0665333,13.548375 32.844,13.548375 C33.7540667,13.548375 34.4624,13.199625 34.969,12.504375 C35.4767333,11.808 35.7306,10.89 35.7306,9.74925 L35.7306,9.74925 Z"></path>
                                    <path d="M52.1775333,10.9935 C52.1775333,12.267 51.7321333,13.303125 50.8379333,14.103 C49.8553333,14.977125 48.4874,15.413625 46.7296,15.413625 C45.1066667,15.413625 43.8056,15.103125 42.8207333,14.481 L43.3806,12.481875 C44.4414,13.118625 45.6053333,13.438125 46.8735333,13.438125 C47.7836,13.438125 48.4919333,13.233375 49.0008,12.826125 C49.5074,12.418875 49.7601333,11.872125 49.7601333,11.190375 C49.7601333,10.582875 49.5516,10.071 49.1334,9.655875 C48.7174667,9.24075 48.0227333,8.854875 47.0526,8.49825 C44.4119333,7.520625 43.0927333,6.0885 43.0927333,4.20525 C43.0927333,2.9745 43.5551333,1.965375 44.4810667,1.180125 C45.4036,0.39375 46.6344,0.001125 48.1734667,0.001125 C49.5459333,0.001125 50.6860667,0.2385 51.5961333,0.712125 L50.9920667,2.667375 C50.1420667,2.208375 49.181,1.978875 48.1054667,1.978875 C47.2554667,1.978875 46.5913333,2.187 46.1153333,2.601 C45.713,2.971125 45.5112667,3.42225 45.5112667,3.956625 C45.5112667,4.548375 45.7413333,5.03775 46.2037333,5.4225 C46.6060667,5.778 47.3370667,6.16275 48.3978667,6.577875 C49.6955333,7.0965 50.6486667,7.702875 51.2618,8.398125 C51.8726667,9.091125 52.1775333,9.9585 52.1775333,10.9935 L52.1775333,10.9935 Z"></path>
                                    <path d="M60.1664,6.1965 L57.5030667,6.1965 L57.5030667,11.437875 C57.5030667,12.771 57.9722667,13.437 58.9129333,13.437 C59.3447333,13.437 59.7028667,13.399875 59.9862,13.325625 L60.0530667,15.147 C59.5770667,15.323625 58.9503333,15.4125 58.174,15.4125 C57.2197333,15.4125 56.474,15.123375 55.9356667,14.54625 C55.3996,13.968 55.1298667,12.99825 55.1298667,11.635875 L55.1298667,6.19425 L53.5432,6.19425 L53.5432,4.39425 L55.1298667,4.39425 L55.1298667,2.417625 L57.5030667,1.706625 L57.5030667,4.39425 L60.1664,4.39425 L60.1664,6.1965 L60.1664,6.1965 Z"></path>
                                    <path d="M72.1831333,9.705375 C72.1831333,11.36475 71.7048667,12.727125 70.7506,13.7925 C69.7498667,14.889375 68.4216,15.436125 66.7658,15.436125 C65.1700667,15.436125 63.8996,14.91075 62.9521333,13.86 C62.0046667,12.80925 61.5309333,11.482875 61.5309333,9.88425 C61.5309333,8.211375 62.0182667,6.841125 62.9963333,5.77575 C63.9721333,4.70925 65.2890667,4.176 66.9448667,4.176 C68.5406,4.176 69.8246667,4.701375 70.7936667,5.75325 C71.7207333,6.773625 72.1831333,8.091 72.1831333,9.705375 L72.1831333,9.705375 Z M69.6762,9.783 C69.6762,8.787375 69.462,7.9335 69.0279333,7.221375 C68.5213333,6.359625 67.7971333,5.929875 66.8587333,5.929875 C65.8874667,5.929875 65.1496667,6.36075 64.6430667,7.221375 C64.209,7.934625 63.9948,8.802 63.9948,9.828 C63.9948,10.823625 64.209,11.6775 64.6430667,12.3885 C65.1655333,13.25025 65.8954,13.68 66.8372,13.68 C67.7597333,13.68 68.4839333,13.24125 69.0064,12.366 C69.4518,11.640375 69.6762,10.7775 69.6762,9.783 L69.6762,9.783 Z"></path>
                                    <path d="M80.0371333,6.505875 C79.798,6.462 79.543,6.4395 79.2755333,6.4395 C78.4255333,6.4395 77.7682,6.757875 77.3058,7.39575 C76.9034667,7.95825 76.7017333,8.66925 76.7017333,9.527625 L76.7017333,15.192 L74.2866,15.192 L74.3092667,7.79625 C74.3092667,6.552 74.2786667,5.419125 74.2186,4.397625 L76.3232,4.397625 L76.4116,6.463125 L76.4784667,6.463125 C76.7334667,5.75325 77.1358,5.18175 77.6866,4.753125 C78.2249333,4.36725 78.8063333,4.174875 79.4330667,4.174875 C79.6563333,4.174875 79.8580667,4.190625 80.0371333,4.21875 L80.0371333,6.505875 L80.0371333,6.505875 Z"></path>
                                    <path d="M90.8434667,9.2835 C90.8434667,9.71325 90.8151333,10.0755 90.7550667,10.371375 L83.5062667,10.371375 C83.5346,11.437875 83.8848,12.2535 84.558,12.816 C85.1688667,13.318875 85.9588,13.570875 86.9289333,13.570875 C88.0022,13.570875 88.9814,13.401 89.862,13.060125 L90.2405333,14.725125 C89.2114667,15.170625 87.9965333,15.39225 86.5946,15.39225 C84.9082,15.39225 83.5844667,14.8995 82.6211333,13.915125 C81.6600667,12.93075 81.1784,11.608875 81.1784,9.950625 C81.1784,8.32275 81.6260667,6.967125 82.5225333,5.886 C83.4609333,4.73175 84.7291333,4.154625 86.3248667,4.154625 C87.8922667,4.154625 89.0788667,4.73175 89.8846667,5.886 C90.5227333,6.802875 90.8434667,7.936875 90.8434667,9.2835 L90.8434667,9.2835 Z M88.5394,8.661375 C88.5552667,7.950375 88.3977333,7.336125 88.0702,6.8175 C87.652,6.150375 87.0094,5.817375 86.1446667,5.817375 C85.3547333,5.817375 84.7121333,6.1425 84.2214,6.795 C83.8190667,7.313625 83.5799333,7.93575 83.5062667,8.66025 L88.5394,8.66025 L88.5394,8.661375 Z"></path>
                                </g>
                                <g transform="translate(48.733333, 6.750000)" id="Shape" fill="#FFFFFF">
                                    <path d="M6.85666667,4.510125 C6.85666667,5.83425 6.4566,6.831 5.6576,7.500375 C4.91753333,8.118 3.8658,8.427375 2.50353333,8.427375 C1.82806667,8.427375 1.25006667,8.398125 0.766133333,8.339625 L0.766133333,1.10475 C1.3974,1.0035 2.0774,0.95175 2.8118,0.95175 C4.10946667,0.95175 5.08753333,1.231875 5.74713333,1.792125 C6.48606667,2.4255 6.85666667,3.331125 6.85666667,4.510125 L6.85666667,4.510125 Z M5.60433333,4.54275 C5.60433333,3.684375 5.3754,3.02625 4.91753333,2.56725 C4.45966667,2.109375 3.791,1.879875 2.9104,1.879875 C2.5364,1.879875 2.21793333,1.904625 1.95386667,1.956375 L1.95386667,7.4565 C2.10006667,7.479 2.36753333,7.489125 2.75626667,7.489125 C3.6652,7.489125 4.36673333,7.23825 4.86086667,6.7365 C5.355,6.23475 5.60433333,5.5035 5.60433333,4.54275 L5.60433333,4.54275 Z"></path>
                                    <path d="M13.4968667,5.666625 C13.4968667,6.48225 13.2622667,7.1505 12.7930667,7.67475 C12.3012,8.213625 11.6495333,8.4825 10.8358,8.4825 C10.0515333,8.4825 9.42706667,8.224875 8.96126667,7.707375 C8.4966,7.191 8.26426667,6.539625 8.26426667,5.754375 C8.26426667,4.933125 8.5034,4.25925 8.98393333,3.736125 C9.46446667,3.213 10.1104667,2.950875 10.9242,2.950875 C11.7084667,2.950875 12.3386,3.2085 12.8157333,3.724875 C13.2690667,4.226625 13.4968667,4.874625 13.4968667,5.666625 L13.4968667,5.666625 Z M12.2649333,5.704875 C12.2649333,5.2155 12.1584,4.795875 11.9464667,4.446 C11.6971333,4.023 11.3424,3.8115 10.8811333,3.8115 C10.404,3.8115 10.0413333,4.023 9.792,4.446 C9.57893333,4.795875 9.47353333,5.22225 9.47353333,5.72625 C9.47353333,6.215625 9.58006667,6.63525 9.792,6.985125 C10.0492667,7.408125 10.4074,7.619625 10.8698,7.619625 C11.3231333,7.619625 11.679,7.40475 11.9351333,6.973875 C12.155,6.61725 12.2649333,6.19425 12.2649333,5.704875 L12.2649333,5.704875 Z"></path>
                                    <path d="M22.4003333,3.058875 L20.7286667,8.362125 L19.6406667,8.362125 L18.9482,6.05925 C18.7725333,5.484375 18.6297333,4.912875 18.5186667,4.345875 L18.4971333,4.345875 C18.394,4.928625 18.2512,5.499 18.0676,6.05925 L17.3320667,8.362125 L16.2316,8.362125 L14.6596667,3.058875 L15.8802667,3.058875 L16.4843333,5.58 C16.6305333,6.17625 16.7506667,6.744375 16.847,7.282125 L16.8685333,7.282125 C16.9569333,6.838875 17.1031333,6.274125 17.3094,5.59125 L18.0676,3.06 L19.0354667,3.06 L19.7619333,5.53725 C19.9376,6.141375 20.0804,6.723 20.1903333,7.28325 L20.2232,7.28325 C20.3036667,6.737625 20.4249333,6.156 20.5858667,5.53725 L21.2341333,3.06 L22.4003333,3.06 L22.4003333,3.058875 Z"></path>
                                    <path d="M28.5577333,8.362125 L27.37,8.362125 L27.37,5.324625 C27.37,4.388625 27.0118667,3.920625 26.2933333,3.920625 C25.9408667,3.920625 25.6564,4.048875 25.4354,4.3065 C25.2166667,4.564125 25.1056,4.867875 25.1056,5.2155 L25.1056,8.361 L23.9178667,8.361 L23.9178667,4.57425 C23.9178667,4.1085 23.9031333,3.603375 23.8748,3.056625 L24.9186,3.056625 L24.9741333,3.88575 L25.007,3.88575 C25.1452667,3.628125 25.3515333,3.4155 25.6224,3.245625 C25.9442667,3.047625 26.3046667,2.9475 26.6990667,2.9475 C27.1977333,2.9475 27.6125333,3.10725 27.9423333,3.427875 C28.3526,3.8205 28.5577333,4.406625 28.5577333,5.185125 L28.5577333,8.362125 L28.5577333,8.362125 Z"></path>
                                    <path d="M31.8330667,8.362125 L30.6464667,8.362125 L30.6464667,0.6255 L31.8330667,0.6255 L31.8330667,8.362125 L31.8330667,8.362125 Z"></path>
                                    <path d="M38.8257333,5.666625 C38.8257333,6.48225 38.5911333,7.1505 38.1219333,7.67475 C37.6300667,8.213625 36.9772667,8.4825 36.1646667,8.4825 C35.3792667,8.4825 34.7548,8.224875 34.2901333,7.707375 C33.8254667,7.191 33.5931333,6.539625 33.5931333,5.754375 C33.5931333,4.933125 33.8322667,4.25925 34.3128,3.736125 C34.7933333,3.213 35.4393333,2.950875 36.2519333,2.950875 C37.0373333,2.950875 37.6663333,3.2085 38.1446,3.724875 C38.5979333,4.226625 38.8257333,4.874625 38.8257333,5.666625 L38.8257333,5.666625 Z M37.5926667,5.704875 C37.5926667,5.2155 37.4861333,4.795875 37.2742,4.446 C37.026,4.023 36.6701333,3.8115 36.21,3.8115 C35.7317333,3.8115 35.3690667,4.023 35.1208667,4.446 C34.9078,4.795875 34.8024,5.22225 34.8024,5.72625 C34.8024,6.215625 34.9089333,6.63525 35.1208667,6.985125 C35.3781333,7.408125 35.7362667,7.619625 36.1986667,7.619625 C36.652,7.619625 37.0067333,7.40475 37.2628667,6.973875 C37.4838667,6.61725 37.5926667,6.19425 37.5926667,5.704875 L37.5926667,5.704875 Z"></path>
                                    <path d="M44.574,8.362125 L43.5075333,8.362125 L43.4191333,7.75125 L43.3862667,7.75125 C43.0213333,8.238375 42.5011333,8.4825 41.8256667,8.4825 C41.3213333,8.4825 40.9133333,8.321625 40.6062,8.002125 C40.3274,7.711875 40.188,7.35075 40.188,6.922125 C40.188,6.274125 40.46,5.78025 41.0074,5.43825 C41.5536667,5.09625 42.3220667,4.928625 43.3114667,4.9365 L43.3114667,4.8375 C43.3114667,4.138875 42.942,3.790125 42.2019333,3.790125 C41.6749333,3.790125 41.2102667,3.92175 40.8090667,4.18275 L40.5676667,3.40875 C41.0640667,3.103875 41.6772,2.950875 42.4002667,2.950875 C43.7965333,2.950875 44.4969333,3.682125 44.4969333,5.144625 L44.4969333,7.097625 C44.4969333,7.6275 44.523,8.049375 44.574,8.362125 L44.574,8.362125 Z M43.3409333,6.539625 L43.3409333,5.72175 C42.0308,5.69925 41.3757333,6.055875 41.3757333,6.7905 C41.3757333,7.06725 41.4505333,7.27425 41.6035333,7.412625 C41.7565333,7.551 41.9514667,7.619625 42.1838,7.619625 C42.4444667,7.619625 42.6881333,7.5375 42.9102667,7.374375 C43.1335333,7.210125 43.2706667,7.002 43.3216667,6.746625 C43.3341333,6.68925 43.3409333,6.6195 43.3409333,6.539625 L43.3409333,6.539625 Z"></path>
                                    <path d="M51.323,8.362125 L50.269,8.362125 L50.2134667,7.5105 L50.1806,7.5105 C49.844,8.1585 49.2705333,8.4825 48.4647333,8.4825 C47.821,8.4825 47.2849333,8.231625 46.8599333,7.729875 C46.4349333,7.228125 46.223,6.57675 46.223,5.776875 C46.223,4.9185 46.4530667,4.22325 46.9154667,3.69225 C47.3631333,3.19725 47.9116667,2.94975 48.5644667,2.94975 C49.2818667,2.94975 49.7839333,3.189375 50.0695333,3.66975 L50.0922,3.66975 L50.0922,0.6255 L51.2810667,0.6255 L51.2810667,6.933375 C51.2810667,7.44975 51.2946667,7.925625 51.323,8.362125 L51.323,8.362125 Z M50.0922,6.125625 L50.0922,5.241375 C50.0922,5.088375 50.0808667,4.964625 50.0593333,4.870125 C49.9924667,4.586625 49.8485333,4.348125 49.6298,4.15575 C49.4088,3.963375 49.1424667,3.866625 48.8353333,3.866625 C48.3922,3.866625 48.0454,4.041 47.7904,4.390875 C47.5376667,4.74075 47.4096,5.187375 47.4096,5.733 C47.4096,6.25725 47.5308667,6.6825 47.7745333,7.009875 C48.0318,7.358625 48.3786,7.533 48.8126667,7.533 C49.2025333,7.533 49.5142,7.387875 49.7510667,7.0965 C49.98,6.827625 50.0922,6.503625 50.0922,6.125625 L50.0922,6.125625 Z"></path>
                                    <path d="M61.4810667,5.666625 C61.4810667,6.48225 61.2464667,7.1505 60.7772667,7.67475 C60.2854,8.213625 59.6348667,8.4825 58.82,8.4825 C58.0368667,8.4825 57.4124,8.224875 56.9454667,7.707375 C56.4808,7.191 56.2484667,6.539625 56.2484667,5.754375 C56.2484667,4.933125 56.4876,4.25925 56.9681333,3.736125 C57.4486667,3.213 58.0946667,2.950875 58.9095333,2.950875 C59.6926667,2.950875 60.3239333,3.2085 60.7999333,3.724875 C61.2532667,4.226625 61.4810667,4.874625 61.4810667,5.666625 L61.4810667,5.666625 Z M60.2502667,5.704875 C60.2502667,5.2155 60.1437333,4.795875 59.9318,4.446 C59.6813333,4.023 59.3277333,3.8115 58.8653333,3.8115 C58.3893333,3.8115 58.0266667,4.023 57.7762,4.446 C57.5631333,4.795875 57.4577333,5.22225 57.4577333,5.72625 C57.4577333,6.215625 57.5642667,6.63525 57.7762,6.985125 C58.0334667,7.408125 58.3916,7.619625 58.854,7.619625 C59.3073333,7.619625 59.6643333,7.40475 59.9204667,6.973875 C60.1392,6.61725 60.2502667,6.19425 60.2502667,5.704875 L60.2502667,5.704875 Z"></path>
                                    <path d="M67.8674,8.362125 L66.6808,8.362125 L66.6808,5.324625 C66.6808,4.388625 66.3226667,3.920625 65.603,3.920625 C65.2505333,3.920625 64.9660667,4.048875 64.7462,4.3065 C64.5263333,4.564125 64.4164,4.867875 64.4164,5.2155 L64.4164,8.361 L63.2275333,8.361 L63.2275333,4.57425 C63.2275333,4.1085 63.2139333,3.603375 63.1856,3.056625 L64.2282667,3.056625 L64.2838,3.88575 L64.3166667,3.88575 C64.4560667,3.628125 64.6623333,3.4155 64.9320667,3.245625 C65.2550667,3.047625 65.6143333,2.9475 66.0098667,2.9475 C66.5074,2.9475 66.9222,3.10725 67.252,3.427875 C67.6634,3.8205 67.8674,4.406625 67.8674,5.185125 L67.8674,8.362125 L67.8674,8.362125 Z"></path>
                                    <path d="M75.8608,3.942 L74.5529333,3.942 L74.5529333,6.51825 C74.5529333,7.173 74.7852667,7.500375 75.2454,7.500375 C75.4584667,7.500375 75.6352667,7.482375 75.7746667,7.44525 L75.8052667,8.339625 C75.5706667,8.427375 75.2624,8.47125 74.8827333,8.47125 C74.4135333,8.47125 74.0486,8.3295 73.7845333,8.046 C73.5193333,7.7625 73.3878667,7.2855 73.3878667,6.616125 L73.3878667,3.942 L72.607,3.942 L72.607,3.058875 L73.3878667,3.058875 L73.3878667,2.086875 L74.5518,1.738125 L74.5518,3.05775 L75.8596667,3.05775 L75.8596667,3.942 L75.8608,3.942 Z"></path>
                                    <path d="M82.1485333,8.362125 L80.9596667,8.362125 L80.9596667,5.347125 C80.9596667,4.3965 80.6015333,3.920625 79.8841333,3.920625 C79.3333333,3.920625 78.9570667,4.19625 78.7508,4.7475 C78.7156667,4.863375 78.6952667,5.005125 78.6952667,5.171625 L78.6952667,8.361 L77.5086667,8.361 L77.5086667,0.6255 L78.6952667,0.6255 L78.6952667,3.821625 L78.7179333,3.821625 C79.0919333,3.24 79.628,2.94975 80.3227333,2.94975 C80.8146,2.94975 81.2214667,3.1095 81.5444667,3.430125 C81.9468,3.8295 82.1485333,4.4235 82.1485333,5.20875 L82.1485333,8.362125 L82.1485333,8.362125 Z"></path>
                                    <path d="M88.6346,5.459625 C88.6346,5.671125 88.6187333,5.848875 88.5904,5.994 L85.0283333,5.994 C85.0442,6.51825 85.2142,6.917625 85.544,7.194375 C85.8454667,7.441875 86.2342,7.565625 86.7102,7.565625 C87.2372,7.565625 87.7177333,7.482375 88.1506667,7.31475 L88.3365333,8.13375 C87.8299333,8.352 87.2338,8.461125 86.5436,8.461125 C85.7162667,8.461125 85.0646,8.21925 84.5931333,7.7355 C84.1194,7.25175 83.8848,6.602625 83.8848,5.788125 C83.8848,4.98825 84.1035333,4.32225 84.5444,3.79125 C85.0045333,3.22425 85.6267333,2.94075 86.4121333,2.94075 C87.1805333,2.94075 87.7642,3.22425 88.1586,3.79125 C88.4770667,4.24125 88.6346,4.798125 88.6346,5.459625 L88.6346,5.459625 Z M87.5012667,5.15475 C87.5103333,4.804875 87.4321333,4.503375 87.2712,4.249125 C87.0649333,3.92175 86.751,3.7575 86.326,3.7575 C85.9384,3.7575 85.6222,3.91725 85.3808,4.237875 C85.1836,4.49325 85.0668667,4.798125 85.0283333,5.15475 L87.5012667,5.15475 L87.5012667,5.15475 Z"></path>
                                </g>
                            </g>
                        </g>
                    </g>
                </g>
            </g>
        </g>
    </g>
</svg>