<svg xmlns="http://www.w3.org/2000/svg" width="24" height="23" viewBox="0 0 24 23">
  <defs>
    <path id="a" d="M2.4 19.5c0 .3.3.5.6.5h14c.3 0 .5-.2.6-.5l2.3-11c0-.3-.2-.5-.5-.5H.5c-.3 0-.5.2-.4.5l2.4 11z"/>
    <mask id="b" width="22.8" height="15" x="-1.5" y="-1.5">
      <path fill="#fff" d="M-1.4 6.5h22.8v15H-1.4z"/>
      <path id="a" d="M2.4 19.5c0 .3.3.5.6.5h14c.3 0 .5-.2.6-.5l2.3-11c0-.3-.2-.5-.5-.5H.5c-.3 0-.5.2-.4.5l2.4 11z"/>
    </mask>
  </defs>
  <g fill="none" fill-rule="evenodd" stroke="#000" transform="translate(2 1)">
    <path id="a" d="M2.4 19.5c0 .3.3.5.6.5h14c.3 0 .5-.2.6-.5l2.3-11c0-.3-.2-.5-.5-.5H.5c-.3 0-.5.2-.4.5l2.4 11z" mask="url(#b)" stroke-width="1.5"/>
    <path stroke-width="0.8" d="M19 7l-6-7M1 7l6-7M10 11v6M6 11v6M14 11v6" stroke-linecap="round"/>
  </g>
</svg>
